<?xml version="1.0" encoding="utf-8"?>
<!-- Generator: Adobe Illustrator 19.1.0, SVG Export Plug-In . SVG Version: 6.00 Build 0)  -->
<svg version="1.1" id="Layer_1" xmlns="http://www.w3.org/2000/svg" xmlns:xlink="http://www.w3.org/1999/xlink" x="0px" y="0px"
	 width="278px" height="678px" viewBox="0 0 278 678" style="enable-background:new 0 0 278 678;" xml:space="preserve">
<style type="text/css">
	.st0{opacity:0.1;}
	.st1{fill:#AEAEAE;}
</style>
<g class="st0">
	<path class="st1" d="M87.5,245.7c2.6-11.1,11.8-18.4,19.8-15.8c8,2.6,12,14.3,9.8,25.6c-2.2,11.3-10.1,18-18.5,15.2
		C90.3,267.8,84.9,256.8,87.5,245.7z"/>
	<path class="st1" d="M126.9,330.7c0.8-10.1,6.2-16.6,11.6-14.7c5.4,1.9,8.8,11.1,8,20.8c-0.7,9.7-5.4,16.6-10.8,15.1
		C130.2,350.4,126.1,340.8,126.9,330.7z"/>
	<path class="st1" d="M253.5,394.2c0.2-4.4,4.6-8.3,9.6-8.8c5-0.6,8.9,1.6,8.8,4.9c-0.2,3.3-4.4,7.4-9.5,9
		C257.3,400.9,253.3,398.6,253.5,394.2z"/>
	<path class="st1" d="M203.8,401.6c0.3-6.9,5.2-12.4,10.8-12.5c5.6-0.1,9.8,4.5,9.5,10.5c-0.3,6-4.9,11.8-10.5,12.8
		C208,413.4,203.6,408.5,203.8,401.6z"/>
	<path class="st1" d="M234.7,428.5c0.1-3.9,2.3-8.4,4.8-10c2.5-1.7,4.4-0.4,4.3,3c-0.1,3.4-2.2,7.9-4.8,10.1
		C236.6,433.8,234.6,432.4,234.7,428.5z"/>
	<path class="st1" d="M148,397.2c0.3-8.9,5.9-15.1,12.2-14.3c6.3,0.8,11.1,7.8,10.8,16c-0.3,8.2-5.4,15.1-11.8,15
		C152.9,413.8,147.8,406.1,148,397.2z"/>
	<path class="st1" d="M204.3,449c0-5.6,2.4-11.2,5.2-12.6c2.8-1.5,4.9,1.4,4.9,6.4c-0.1,5-2.3,10.8-5,12.8
		C206.6,457.6,204.3,454.5,204.3,449z"/>
	<path class="st1" d="M84.8,376.8c0-9.8,6.4-15.2,13.9-12.9c7.5,2.4,13.1,11.5,12.9,21.2c-0.1,9.6-5.9,16.4-13.3,14.2
		C91.1,397.2,84.8,386.7,84.8,376.8z"/>
	<path class="st1" d="M168.7,459.3c-0.2-7.2,2.4-13.7,5.7-14.7c3.2-1,5.8,3.4,6,10.1c0.1,6.7-2.3,13.6-5.4,15.1
		S168.9,466.5,168.7,459.3z"/>
	<path class="st1" d="M7,332.9c-0.3-8.9,6.9-10.5,15.6-5.3c8.7,5.2,15.4,16.1,15.6,25.7c0.2,9.6-6.2,13.9-14.7,8
		C15,355.3,7.4,341.8,7,332.9z"/>
	<path class="st1" d="M124.2,451c-0.6-8.7,2.1-15.6,5.8-15.7c3.7-0.1,6.9,6.1,7.3,14.4c0.4,8.3-1.9,15.8-5.5,16.4
		C128.4,466.7,124.8,459.7,124.2,451z"/>
	<g>
		<path class="st1" d="M262.4,434.1c-0.6-3.2,1.7-9.9,5.1-15.1c3.4-5.1,6.6-7.2,7.1-4.5s-1.8,9.4-5.1,15.1
			C266.3,435.3,263.1,437.3,262.4,434.1z"/>
		<path class="st1" d="M214.7,486.7c0-4.2,2.4-10,5.2-13c2.8-3,5.1-2.4,5,1.4c0,3.8-2.3,9.7-5.1,13.1
			C216.9,491.7,214.6,490.9,214.7,486.7z"/>
		<path class="st1" d="M242.4,459.2c0-4.2,2.4-10,5.2-13c2.8-3,5.1-2.4,5,1.4c0,3.8-2.3,9.7-5.1,13.1
			C244.7,464.2,242.4,463.5,242.4,459.2z"/>
		<path class="st1" d="M183.5,514.4c-0.2-6.1,2.1-12.8,5.1-15.2c3-2.4,5.5,0,5.7,5.6c0.1,5.6-2.1,12.7-5,15.6
			C186.3,523.2,183.7,520.4,183.5,514.4z"/>
		<path class="st1" d="M139.3,538.5c-0.7-8,1.6-15.3,5-16.8c3.4-1.5,6.5,3.1,7,10.6c0.5,7.5-1.6,15.5-4.8,17.4
			C143.2,551.7,140,546.5,139.3,538.5z"/>
		<path class="st1" d="M86.9,550.8c-1.4-10.1,0.6-17.6,4.3-17.5c3.7,0.1,7.5,7.4,8.7,16.9c1.2,9.5-0.6,18.1-4,18.6
			C92.4,569.2,88.3,560.8,86.9,550.8z"/>
	</g>
	<g>
		<path class="st1" d="M235.2,502.6c0-3.9,1.7-10.4,3.8-14.6c2.2-4.2,3.9-4.8,3.9-1.3c0,3.5-1.7,10-3.8,14.6
			C237,505.9,235.3,506.4,235.2,502.6z"/>
		<path class="st1" d="M211.9,546c-0.3-6,1.3-14.2,3.6-18.5c2.3-4.3,4.3-3.3,4.5,2.3c0.2,5.6-1.3,14-3.5,18.7
			C214.2,553.1,212.2,552,211.9,546z"/>
		<path class="st1" d="M184.9,597c-1-8.2,0.3-17.9,2.9-21.7c2.6-3.9,5.4-0.9,6.3,6.9c0.9,7.8-0.3,17.7-2.8,22
			C188.8,608.5,185.9,605.2,184.9,597z"/>
		<path class="st1" d="M159.1,653.9c-1.9-13-1-26.5,1.9-30.5c2.9-4,6.6,2.4,8.3,14.8c1.7,12.3,1,26.4-1.7,31.1
			C164.9,674,161,666.9,159.1,653.9z"/>
	</g>
	<path class="st1" d="M260.3,331.3c0.4-4.6,4.5-4.8,9-0.4c4.5,4.3,7.9,10.4,7.6,13.5c-0.3,3.1-4.2,3.3-8.9,0.4
		C263.4,341.9,259.9,335.8,260.3,331.3z"/>
	<path class="st1" d="M263.1,366.5c0.2-3.1,2.9-4.7,5.9-3.6c3,1.1,5.3,3.8,5.1,6.1c-0.2,2.2-2.7,3.8-5.8,3.6
		C265.2,372.3,262.8,369.6,263.1,366.5z"/>
	<path class="st1" d="M223.3,314.3c0.8-7.3,5.7-9.7,10.7-5.5c5,4.3,8.5,12.6,7.9,18.6c-0.6,6-5.1,8.4-10.4,5.4
		C226.4,329.9,222.5,321.6,223.3,314.3z"/>
	<path class="st1" d="M236.1,360.3c0.4-5.2,3.5-8.4,6.9-7.2c3.4,1.2,5.8,5.7,5.5,10c-0.3,4.3-3.2,7.6-6.7,7.2
		C238.3,370.1,235.7,365.6,236.1,360.3z"/>
	<path class="st1" d="M182.5,288.6c1.2-9.6,7.2-14.2,12.9-10.1c5.7,4.1,9.3,14.4,8.3,22.9c-1,8.5-6.3,13-12.3,10
		C185.5,308.4,181.3,298.2,182.5,288.6z"/>
	<path class="st1" d="M205.5,353c0.5-7.2,4.2-11.9,8.1-10.5c3.8,1.4,6.4,7.6,6,14c-0.4,6.4-3.8,11.2-7.7,10.7
		C207.9,366.6,205,360.2,205.5,353z"/>
	<g>
		<path class="st1" d="M196.2,25c6-20.7,16.1-30.5,18.4-19.4c3.5,16.7-0.3,39.3-5.1,55.1c-5.5,18-13.8,24.3-17.3,16.2
			C185.5,61.7,192,39.5,196.2,25z"/>
		<path class="st1" d="M257.1,200.8c1.6-9.3,5.3-5.9,8.3,7.7c3,13.6,4.7,30.3,3.7,37.1c-0.9,6.8-4.6,3.1-8.2-8.1
			C257.3,226.4,255.5,210,257.1,200.8z"/>
		<path class="st1" d="M263.9,272c1.3-6.4,4.4-3.9,7,5.8c2.6,9.7,4.1,21.4,3.3,26.1c-0.7,4.7-3.8,2-6.9-6
			C264.2,289.9,262.6,278.4,263.9,272z"/>
		<path class="st1" d="M237.5,139.3c2.8-13.1,7.6-13.4,10.4,0.1c2.8,13.5,3.5,33.2,1.5,43.7c-1.9,10.5-6.3,9.8-10.1-1.1
			C235.6,171.2,234.7,152.4,237.5,139.3z"/>
		<path class="st1" d="M215.6,79c4.7-16.9,11.1-21.3,13.9-8.6c2.8,12.7,2.1,35.4-1.3,49.7c-3.4,14.3-9.1,16.8-13.2,6.7
			C210.9,116.7,210.9,95.9,215.6,79z"/>
	</g>
	<g>
		<path class="st1" d="M112.9,73.3c4.2-24.1,14.6-43.5,22.8-39c8.2,4.5,12.2,28.6,9.4,50.5c-2.7,21.9-12.2,35.2-21.8,32.9
			C113.7,115.5,108.7,97.4,112.9,73.3z"/>
		<path class="st1" d="M231.1,222.2c1.6-10.3,7.1-9.3,12.1,2.8s8.1,28.6,7.1,36.6c-1,7.9-6.2,6.2-11.8-3.5
			C233,248.3,229.5,232.5,231.1,222.2z"/>
		<path class="st1" d="M198.5,164.1c2.9-13.8,9.7-17.2,14.9-6.3c5.2,10.8,7.6,29.8,5.5,41.5c-2,11.7-8.2,13.5-14.3,4.9
			C198.6,195.4,195.6,177.9,198.5,164.1z"/>
		<path class="st1" d="M161.6,115.7c4.7-16.9,13.8-25.1,19.6-16.2c5.9,8.9,7.4,29.6,3.9,44.6c-3.5,15.1-11.5,20.5-18.5,13.5
			C159.5,150.6,156.9,132.6,161.6,115.7z"/>
	</g>
	<g>
		<path class="st1" d="M134.4,190.3c2.1-14.6,9.3-23.9,15.4-19.8c6.1,4.1,9.4,19.2,7.9,32.8c-1.5,13.7-7.6,21.6-14.4,18.5
			C136.6,218.6,132.3,204.9,134.4,190.3z"/>
		<path class="st1" d="M241.6,286.5c0.8-6.9,4.5-7.5,8.2-1.3c3.6,6.2,6,15.6,5.5,21c-0.6,5.4-4,5.9-7.9,1.2
			C243.5,302.8,240.8,293.4,241.6,286.5z"/>
		<path class="st1" d="M214.1,261.1c1.4-9.4,6.1-12.4,10.1-6.3c4,6,6.2,17.6,5.2,25.6c-1,8-5.2,10.7-9.6,6.1
			C215.4,281.8,212.7,270.6,214.1,261.1z"/>
		<path class="st1" d="M177.3,221.2c2.2-11.7,8.2-17.1,12.9-11.4c4.7,5.6,6.7,19,5,29.5c-1.8,10.5-7,15.2-12.1,10.8
			C177.9,245.7,175.1,232.9,177.3,221.2z"/>
	</g>
	<path class="st1" d="M134.4,264.2c1.9-11.1,9.4-17.3,16.1-13.7c6.8,3.6,10.6,15.2,9.1,25.7c-1.5,10.5-8.1,16.5-15.2,13.4
		C137.3,286.6,132.5,275.2,134.4,264.2z"/>
	<path class="st1" d="M169.3,343.4c0.7-8.9,5.2-14.8,9.8-13.2c4.6,1.6,7.6,9.5,7,17.8c-0.6,8.2-4.6,14.3-9.3,13.4
		C172.2,360.5,168.7,352.3,169.3,343.4z"/>
</g>
</svg>