<?xml version="1.0" encoding="utf-8"?>
<!-- Generator: Adobe Illustrator 19.1.0, SVG Export Plug-In . SVG Version: 6.00 Build 0)  -->
<svg version="1.1" id="Layer_1" xmlns="http://www.w3.org/2000/svg" xmlns:xlink="http://www.w3.org/1999/xlink" x="0px" y="0px"
	 width="108px" height="84px" viewBox="0 0 108 84" style="enable-background:new 0 0 108 84;" xml:space="preserve">
<style type="text/css">
	.st0{fill:none;stroke:#787778;stroke-width:2.5952;stroke-miterlimit:10;}
	.st1{fill:none;stroke:#787778;stroke-width:2.5952;stroke-miterlimit:10;stroke-dasharray:5.9372,5.9372;}
	.st2{fill:none;stroke:#787778;stroke-width:2.5952;stroke-miterlimit:10;stroke-dasharray:6.0645,6.0645;}
	.st3{fill:none;stroke:#787778;stroke-width:2.5952;stroke-miterlimit:10;stroke-dasharray:5.9873,5.9873;}
	.st4{fill:none;stroke:#787778;stroke-width:2.5952;stroke-miterlimit:10;stroke-dasharray:6.9233,6.9233;}
	.st5{fill:none;stroke:#787778;stroke-width:2.5952;stroke-miterlimit:10;stroke-dasharray:7.2151,7.2151;}
	.st6{fill:#787778;}
</style>
<g>
	<g>
		<g>
			<line class="st0" x1="16.8" y1="53.5" x2="16.8" y2="50.4"/>
			<line class="st1" x1="16.8" y1="44.5" x2="16.8" y2="11.8"/>
			<polyline class="st0" points="16.8,8.9 16.8,5.7 19.9,5.7 			"/>
			<line class="st2" x1="26" y1="5.7" x2="83.6" y2="5.7"/>
			<polyline class="st0" points="86.6,5.7 89.7,5.7 89.7,8.9 			"/>
			<line class="st2" x1="89.7" y1="14.9" x2="89.7" y2="72.5"/>
			<polyline class="st0" points="89.7,75.6 89.7,78.7 86.6,78.7 			"/>
			<line class="st3" x1="80.6" y1="78.7" x2="47.7" y2="78.7"/>
			<line class="st0" x1="44.7" y1="78.7" x2="41.6" y2="78.7"/>
		</g>
	</g>
	<rect x="16.8" y="57.8" class="st0" width="21.9" height="21.9"/>
	<line class="st0" x1="42.1" y1="54.2" x2="60.5" y2="34.5"/>
	<line class="st0" x1="66.1" y1="29.9" x2="89.4" y2="6.1"/>
	<g>
		<g>
			<line class="st0" x1="19.9" y1="34.5" x2="23" y2="34.5"/>
			<line class="st4" x1="29.9" y1="34.5" x2="54.1" y2="34.5"/>
			<polyline class="st0" points="57.6,34.5 60.7,34.5 60.7,37.6 			"/>
			<line class="st5" x1="60.7" y1="44.8" x2="60.7" y2="70.1"/>
			<line class="st0" x1="60.7" y1="73.7" x2="60.7" y2="76.8"/>
		</g>
	</g>
	<g>
		<polygon class="st6" points="62.1,48.2 59.3,48.2 59.2,35.9 47,35.9 47,33 62.1,33 		"/>
	</g>
	<g>
		<polygon class="st6" points="91.2,20.8 88.3,20.8 88.2,7.3 74.6,7.3 74.6,4.3 91.2,4.3 		"/>
	</g>
</g>
</svg>
