<?xml version="1.0" encoding="utf-8"?>
<!-- Generator: Adobe Illustrator 19.1.0, SVG Export Plug-In . SVG Version: 6.00 Build 0)  -->
<svg version="1.1" id="Layer_1" xmlns="http://www.w3.org/2000/svg" xmlns:xlink="http://www.w3.org/1999/xlink" x="0px" y="0px"
	 width="108px" height="84px" viewBox="0 0 108 84" style="enable-background:new 0 0 108 84;" xml:space="preserve">
<style type="text/css">
	.st0{fill:none;stroke:#787778;stroke-width:2.5952;stroke-miterlimit:10;}
	.st1{fill:#787778;}
</style>
<g>
	<path class="st0" d="M5.7,26.1c0,0,30.2-5,47.5,1.5c0,0,35.4-6.7,47.9-1.7v6.5c0,0-2.1,1.2-2.4,2.4C98.3,36.2,99,55.1,85,56.3H73.1
		c0,0-15-5.6-16.5-19.8c0,0-3.4-2.9-6.4-0.2c0,0-3.5,16.5-15,20h-14c0,0-11.4-2.1-12.4-21.3c0,0-0.3-1.5-3.1-2.9V26.1z"/>
	<path class="st0" d="M21.7,28.4h13c0,0,9.7,0.8,9.6,6.7S40.8,51.8,33,52.1c-7.8,0.2-10.4,0-10.4,0s-6.5-2.1-7.4-9
		c-0.9-6.9,0-9.3,0-9.3S17.1,29.5,21.7,28.4z"/>
	<path class="st0" d="M86.3,28.4h-13c0,0-9.7,0.8-9.6,6.7c0.1,6,3.5,16.7,11.3,16.9c7.8,0.2,10.4,0,10.4,0s6.5-2.1,7.4-9
		s0-9.3,0-9.3S90.9,29.5,86.3,28.4z"/>
	<ellipse class="st1" cx="10.8" cy="29.7" rx="2.6" ry="1.3"/>
	<ellipse class="st1" cx="96.9" cy="29.7" rx="2.6" ry="1.3"/>
	<path class="st0" d="M9.6,52.2c0,0-4.3,3.8-4.8,4.1c-0.4,0.3,3.5,6,10.5,1.3"/>
	<path class="st0" d="M98.4,52.6c0,0,4.3,3.8,4.8,4.1s-3.5,6-10.5,1.3"/>
</g>
</svg>
